<svg width="20" height="20" viewBox="0 0 20 20" fill="none" xmlns="http://www.w3.org/2000/svg">
<g opacity="0.7">
<path d="M1.84946 1.26148H18.1505C18.6595 1.26148 19.1219 1.4613 19.457 1.78317C19.792 2.10506 20 2.54936 20 3.03829V18.2232C20 18.7121 19.792 19.1564 19.457 19.4783C19.1219 19.8002 18.6595 20 18.1505 20H1.84946C1.34055 20 0.878082 19.8002 0.543028 19.4783C0.207971 19.1564 0 18.7121 0 18.2232V3.03829C0 2.54936 0.207972 2.10506 0.543028 1.78317C0.878068 1.4613 1.34055 1.26148 1.84946 1.26148ZM18.1505 1.88649H1.84946C1.52012 1.88649 1.22044 2.01618 1.00299 2.22507C0.785544 2.43398 0.650551 2.72188 0.650551 3.03829V18.2232C0.650551 18.5396 0.785544 18.8275 1.00299 19.0364C1.22044 19.2453 1.52012 19.375 1.84946 19.375H18.1505C18.4799 19.375 18.7796 19.2453 18.997 19.0364C19.2145 18.8275 19.3494 18.5396 19.3494 18.2232V3.03829C19.3494 2.72188 19.2145 2.43397 18.997 2.22507C18.7796 2.01618 18.4799 1.88649 18.1505 1.88649Z" fill="black"/>
<path d="M0.325264 6.80508H19.6747V7.43008H0.325264V6.80508Z" fill="black"/>
<path d="M4.3708 0.3125C4.3708 0.139918 4.22516 0 4.04552 0C3.86588 0 3.72024 0.139918 3.72024 0.3125V3.24477C3.72024 3.41735 3.86588 3.55727 4.04552 3.55727C4.22516 3.55727 4.3708 3.41735 4.3708 3.24477V0.3125Z" fill="black"/>
<path d="M16.2797 0.3125C16.2797 0.139918 16.1341 0 15.9544 0C15.7748 0 15.6292 0.139918 15.6292 0.3125V3.24477C15.6292 3.41735 15.7748 3.55727 15.9544 3.55727C16.1341 3.55727 16.2797 3.41735 16.2797 3.24477V0.3125Z" fill="black"/>
</g>
</svg>
