<svg width="25" height="25" viewBox="0 0 25 25" fill="none" xmlns="http://www.w3.org/2000/svg">
<path opacity="0.5" d="M16.3631 12.5C22.0536 8.81981 19.4226 0.0291411 12.5 7.1451e-05C5.57738 -0.0289982 2.97619 8.81981 8.6369 12.5C6.12667 13.3024 3.94006 14.8586 2.38905 16.9468C0.838095 19.0348 0.00196429 21.5481 0 24.1279C0 24.3592 0.0940474 24.581 0.261488 24.7445C0.428928 24.9081 0.656071 25 0.892857 25C1.12964 25 1.35679 24.9081 1.52423 24.7445C1.69167 24.581 1.78571 24.3592 1.78571 24.1279C1.78571 21.3524 2.91452 18.6905 4.92387 16.728C6.93316 14.7654 9.65839 13.6628 12.5 13.6628C15.3416 13.6628 18.0668 14.7654 20.0761 16.728C22.0855 18.6905 23.2143 21.3524 23.2143 24.1279C23.2143 24.3592 23.3083 24.581 23.4758 24.7445C23.6432 24.9081 23.8704 25 24.1071 25C24.3439 25 24.5711 24.9081 24.7385 24.7445C24.906 24.581 25 24.3592 25 24.1279C24.998 21.5481 24.1619 19.0348 22.611 16.9468C21.0599 14.8586 18.8733 13.3024 16.3631 12.5ZM7.29762 6.82563C7.29917 5.47843 7.8478 4.18686 8.8231 3.23425C9.79839 2.28164 11.1207 1.74576 12.5 1.74425C19.3929 2.01169 19.3929 11.6279 12.5 11.9012C11.1217 11.8996 9.8003 11.3646 8.82518 10.4132C7.85006 9.46191 7.30077 8.17179 7.29762 6.82563Z" fill="black"/>
</svg>