<svg width="1920" height="528" viewBox="0 0 1920 528" fill="none" xmlns="http://www.w3.org/2000/svg">
<path d="M-10.5 470.5C174.5 674 393 240 304.5 216C216 192 277 413.092 459 445.5C890.674 522.367 974.5 49.5263 1343 8.0262C1711.5 -33.4739 1927.5 259.526 1927.5 259.526" stroke="#E3E3E3" stroke-width="7" stroke-dasharray="14 14"/>
<path d="M309.5 350.5L298.5 335.5L299 331.5L312.5 335L309.5 350.5Z" fill="white"/>
<path d="M293.128 339.02L304.027 354.094L303.5 358.09L290.024 354.499L293.128 339.02Z" fill="white"/>
<rect x="1670.18" y="29.502" width="132.662" height="41" transform="rotate(30.4783 1670.18 29.502)" fill="white"/>
<path d="M1748.38 111.995C1751.13 111.157 1753.39 109.297 1754.74 106.758C1756.1 104.219 1756.38 101.306 1755.54 98.5545C1754.7 95.8031 1752.84 93.5435 1750.22 92.1464L1733.66 83.8969L1731.92 47.2768C1731.86 46.0295 1731.15 44.9044 1730.05 44.3187L1723.08 40.6045C1722.12 40.0946 1720.98 40.0515 1719.99 40.4861C1719 40.9195 1718.26 41.7846 1717.99 42.8324L1710.27 72.2478L1692.33 63.3154L1688.34 52.0291C1687.88 50.7052 1686.67 49.7832 1685.27 49.6769C1683.87 49.5717 1682.54 50.3046 1681.88 51.5441L1668.27 77.0965C1667.82 77.941 1667.74 78.9127 1668 79.7959C1668.13 80.2082 1668.33 80.6011 1668.61 80.9523C1669.48 82.0553 1670.92 82.5425 1672.28 82.1921L1683.87 79.2064L1701.36 89.1427L1681.19 111.916C1680.47 112.728 1680.16 113.826 1680.35 114.893C1680.55 115.961 1681.22 116.881 1682.18 117.392L1689.15 121.106C1690.24 121.69 1691.57 121.658 1692.63 121.02L1724.21 102.125L1740.18 111.197C1742.72 112.549 1745.63 112.834 1748.38 111.995ZM1743.59 104.991L1725.91 94.9441C1724.8 94.3133 1723.44 94.3293 1722.34 94.9831L1690.71 113.911L1689.47 113.25L1709.16 91.0141C1709.35 90.8063 1709.51 90.5758 1709.64 90.33L1709.91 89.8157C1710.37 88.9535 1710.44 87.9848 1710.17 87.1173C1709.92 86.2804 1709.36 85.5364 1708.54 85.07L1686.43 72.5157C1686.48 72.5393 1686.52 72.5639 1686.53 72.5682C1686.42 72.4947 1686.31 72.4216 1686.19 72.3528C1685.38 71.8823 1684.42 71.7489 1683.52 71.9814L1678.3 73.3245L1684.34 61.9787L1686.14 67.0534C1686.45 67.9393 1687.11 68.6647 1687.95 69.0702C1688.06 69.1223 1688.17 69.1681 1688.31 69.2255L1710.97 80.5087C1712.68 81.3651 1714.77 80.6969 1715.67 79.0034L1715.77 78.8177C1715.9 78.5745 1716 78.3179 1716.07 78.0522L1723.7 48.963L1724.94 49.624L1726.68 86.3084C1726.74 87.5883 1727.49 88.739 1728.64 89.3121L1746.97 98.4434C1748.71 99.3698 1749.42 101.69 1748.49 103.427C1748.03 104.295 1747.26 104.93 1746.32 105.217C1745.38 105.504 1744.38 105.407 1743.59 104.991Z" fill="#62BAAF"/>
</svg>
