<svg width="30" height="30" viewBox="0 0 30 30" fill="none" xmlns="http://www.w3.org/2000/svg">
<path d="M14.5161 5.03903V7.74194H15.4839V5.03903L16.1095 5.66468L16.7937 4.98048L15.3421 3.52887C15.2514 3.43816 15.1283 3.3872 15 3.3872C14.8717 3.3872 14.7486 3.43816 14.6579 3.52887L13.2063 4.98048L13.8905 5.66468L14.5161 5.03903Z" fill="#7B7B7B"/>
<path d="M23.3676 17.0773L24.0518 17.7615L25.5034 16.3098C25.5941 16.2191 25.6451 16.096 25.6451 15.9677C25.6451 15.8394 25.5941 15.7164 25.5034 15.6256L24.0518 14.174L23.3676 14.8582L23.9932 15.4839H20.3226V16.4516H23.9932L23.3676 17.0773Z" fill="#7B7B7B"/>
<path d="M5.94823 17.7615L6.63242 17.0773L6.00677 16.4516H9.67742V15.4839H6.00677L6.63242 14.8582L5.94823 14.174L4.49661 15.6256C4.4059 15.7164 4.35494 15.8394 4.35494 15.9677C4.35494 16.096 4.4059 16.2191 4.49661 16.3098L5.94823 17.7615Z" fill="#7B7B7B"/>
<path d="M15.4839 24.961V22.2581H14.5161V24.961L13.8905 24.3353L13.2063 25.0195L14.6579 26.4711C14.7486 26.5618 14.8717 26.6128 15 26.6128C15.1283 26.6128 15.2514 26.5618 15.3421 26.4711L16.7937 25.0195L16.1095 24.3353L15.4839 24.961Z" fill="#7B7B7B"/>
<path d="M29.5161 0H0.483871C0.35554 0 0.232466 0.0509791 0.141723 0.141723C0.0509791 0.232466 0 0.35554 0 0.483871V29.5161C0 29.6445 0.0509791 29.7675 0.141723 29.8583C0.232466 29.949 0.35554 30 0.483871 30H29.5161C29.6445 30 29.7675 29.949 29.8583 29.8583C29.949 29.7675 30 29.6445 30 29.5161V0.483871C30 0.35554 29.949 0.232466 29.8583 0.141723C29.7675 0.0509791 29.6445 0 29.5161 0ZM29.0323 29.0323H0.967742V0.967742H29.0323V29.0323Z" fill="#7B7B7B"/>
</svg>
